HIERARCHY
ROOT hip
{
  OFFSET 0.0 0.0 0.0
  CHANNELS 6 Xposition Yposition Zposition Zrotation Yrotation Xrotation
  JOINT abdomen
  {
    OFFSET 0.0 20.6881 -0.73152
    CHANNELS 3 Zrotation Xrotation Yrotation
    JOINT chest
    {
      OFFSET 0.0 11.7043 -0.48768
      CHANNELS 3 Zrotation Xrotation Yrotation
      JOINT neck
      {
        OFFSET 0.0 22.1894 -2.19456
        CHANNELS 3 Zrotation Xrotation Yrotation
        JOINT head
        {
          OFFSET -0.24384 7.07133 1.2192
          CHANNELS 3 Zrotation Xrotation Yrotation
          JOINT leftEye
          {
            OFFSET 4.14528 8.04674 8.04672
            CHANNELS 3 Zrotation Xrotation Yrotation
            End Site
            {
              OFFSET 1.0 0.0 0.0
            }
          }
          JOINT rightEye
          {
            OFFSET -3.6576 8.04674 8.04672
            CHANNELS 3 Zrotation Xrotation Yrotation
            End Site
            {
              OFFSET 1.0 0.0 0.0
            }
          }
        }
      }
      JOINT rCollar
      {
        OFFSET -2.68224 19.2634 -4.8768
        CHANNELS 3 Zrotation Xrotation Yrotation
        JOINT rShldr
        {
          OFFSET -8.77824 -1.95073 1.46304
          CHANNELS 3 Zrotation Xrotation Yrotation
          JOINT rForeArm
          {
            OFFSET -28.1742 -1.7115 0.48768
            CHANNELS 3 Zrotation Xrotation Yrotation
            JOINT rHand
            {
              OFFSET -22.5879 0.773209 7.07136
              CHANNELS 3 Zrotation Xrotation Yrotation
              JOINT rThumb1
              {
                OFFSET -1.2192 -0.487915 3.41376
                CHANNELS 3 Zrotation Xrotation Yrotation
                JOINT rThumb2
                {
                  OFFSET -3.37035 -0.52449 3.41376
                  CHANNELS 3 Zrotation Xrotation Yrotation
                  End Site
                  {
                    OFFSET -1.78271 -1.18214 1.43049
                  }
                }
              }
              JOINT rIndex1
              {
                OFFSET -7.75947 0.938293 5.60832
                CHANNELS 3 Zrotation Xrotation Yrotation
                JOINT rIndex2
                {
                  OFFSET -2.54057 -0.884171 1.56538
                  CHANNELS 3 Zrotation Xrotation Yrotation
                  End Site
                  {
                    OFFSET -1.62519 -0.234802 1.16502
                  }
                }
              }
              JOINT rMid1
              {
                OFFSET -8.24714 1.18213 3.41376
                CHANNELS 3 Zrotation Xrotation Yrotation
                JOINT rMid2
                {
                  OFFSET -3.10165 -0.590103 1.0647
                  CHANNELS 3 Zrotation Xrotation Yrotation
                  End Site
                  {
                    OFFSET -2.48547 -0.328903 0.83742
                  }
                }
              }
              JOINT rRing1
              {
                OFFSET -8.82822 0.546677 1.51678
                CHANNELS 3 Zrotation Xrotation Yrotation
                JOINT rRing2
                {
                  OFFSET -2.60934 -0.819778 -0.0198488
                  CHANNELS 3 Zrotation Xrotation Yrotation
                  End Site
                  {
                    OFFSET -2.33842 -0.294052 0.168128
                  }
                }
              }
              JOINT rPinky1
              {
                OFFSET -8.27202 -0.0477905 -0.4584
                CHANNELS 3 Zrotation Xrotation Yrotation
                JOINT rPinky2
                {
                  OFFSET -1.82734 -0.647385 -0.700984
                  CHANNELS 3 Zrotation Xrotation Yrotation
                  End Site
                  {
                    OFFSET -1.69225 -0.51767 -0.607171
                  }
                }
              }
            }
          }
        }
      }
      JOINT lCollar
      {
        OFFSET 2.68224 19.2634 -4.8768
        CHANNELS 3 Zrotation Xrotation Yrotation
        JOINT lShldr
        {
          OFFSET 8.77824 -1.95073 1.46304
          CHANNELS 3 Zrotation Xrotation Yrotation
          JOINT lForeArm
          {
            OFFSET 28.1742 -1.7115 0.48768
            CHANNELS 3 Zrotation Xrotation Yrotation
            JOINT lHand
            {
              OFFSET 22.5879 0.773209 7.07136
              CHANNELS 3 Zrotation Xrotation Yrotation
              JOINT lThumb1
              {
                OFFSET 1.2192 -0.487915 3.41376
                CHANNELS 3 Zrotation Xrotation Yrotation
                JOINT lThumb2
                {
                  OFFSET 3.37035 -0.52449 3.41376
                  CHANNELS 3 Zrotation Xrotation Yrotation
                  End Site
                  {
                    OFFSET 1.78271 -1.18214 1.43049
                  }
                }
              }
              JOINT lIndex1
              {
                OFFSET 7.75947 0.938293 5.60832
                CHANNELS 3 Zrotation Xrotation Yrotation
                JOINT lIndex2
                {
                  OFFSET 2.54057 -0.884171 1.56538
                  CHANNELS 3 Zrotation Xrotation Yrotation
                  End Site
                  {
                    OFFSET 1.62519 -0.234802 1.16502
                  }
                }
              }
              JOINT lMid1
              {
                OFFSET 8.24714 1.18213 3.41376
                CHANNELS 3 Zrotation Xrotation Yrotation
                JOINT lMid2
                {
                  OFFSET 3.10165 -0.590103 1.0647
                  CHANNELS 3 Zrotation Xrotation Yrotation
                  End Site
                  {
                    OFFSET 2.48547 -0.328903 0.83742
                  }
                }
              }
              JOINT lRing1
              {
                OFFSET 8.82822 0.546677 1.51678
                CHANNELS 3 Zrotation Xrotation Yrotation
                JOINT lRing2
                {
                  OFFSET 2.60934 -0.819778 -0.0198488
                  CHANNELS 3 Zrotation Xrotation Yrotation
                  End Site
                  {
                    OFFSET 2.33842 -0.294052 0.168128
                  }
                }
              }
              JOINT lPinky1
              {
                OFFSET 8.27202 -0.0477905 -0.4584
                CHANNELS 3 Zrotation Xrotation Yrotation
                JOINT lPinky2
                {
                  OFFSET 1.82734 -0.647385 -0.700984
                  CHANNELS 3 Zrotation Xrotation Yrotation
                  End Site
                  {
                    OFFSET 1.69225 -0.51767 -0.607171
                  }
                }
              }
            }
          }
        }
      }
    }
  }
  JOINT rButtock
  {
    OFFSET -8.77824 4.35084 1.2192
    CHANNELS 3 Zrotation Xrotation Yrotation
    JOINT rThigh
    {
      OFFSET 0.0 -1.70687 -2.19456
      CHANNELS 3 Zrotation Xrotation Yrotation
      JOINT rShin
      {
        OFFSET 0.0 -36.8199 0.73152
        CHANNELS 3 Zrotation Xrotation Yrotation
        JOINT rFoot
        {
          OFFSET 0.73152 -45.1104 -5.12064
          CHANNELS 3 Zrotation Xrotation Yrotation
          End Site
          {
            OFFSET -1.1221 -3.69964 12.103
          }
        }
      }
    }
  }
  JOINT lButtock
  {
    OFFSET 8.77824 4.35084 1.2192
    CHANNELS 3 Zrotation Xrotation Yrotation
    JOINT lThigh
    {
      OFFSET 0.0 -1.70687 -2.19456
      CHANNELS 3 Zrotation Xrotation Yrotation
      JOINT lShin
      {
        OFFSET 0.0 -36.8199 0.73152
        CHANNELS 3 Zrotation Xrotation Yrotation
        JOINT lFoot
        {
          OFFSET -0.73152 -45.1104 -5.12064
          CHANNELS 3 Zrotation Xrotation Yrotation
          End Site
          {
            OFFSET 1.1221 -3.69964 12.103
          }
        }
      }
    }
  }
}
MOTION
Frames: 5
Frame Time: 0.00833333
16.0941 79.2685 146.008 3.4765 4.4646 -2.4683 0.249646 9.16414 -11.2889 7.7658 -5.34952 -2.7658 9.52354 1.92636 4.03146 -14.7664 -21.836 2.88306 -0.0 0.0 0.0 -0.0 0.0 0.0 1.20971e-13 8.09166e-14 3.22985e-13 67.7309 -27.4129 -14.9466 -25.5202 -22.2602 54.8631 -0.561997 -20.806 -3.06119 -1.47228e-10 -2.60446e-10 1.09558e-09 -2.73057e-10 -4.50927e-10 1.89862e-09 -1.47226e-10 -2.6044e-10 1.09557e-09 7.73091 5.47488 0.417314 -1.47227e-10 -2.6045e-10 1.09558e-09 2.90554 0.965183 0.102902 -1.47228e-10 -2.60453e-10 1.09559e-09 10.2786 0.731801 0.0259123 -1.47234e-10 -2.6045e-10 1.0956e-09 2.22167 -0.733487 -0.20892 1.20803e-13 8.08923e-14 3.22836e-13 -44.4913 2.81385 -16.6768 23.7865 -18.704 -48.9257 0.58019 -21.2838 3.13172 -3.83302e-10 1.53882e-09 -4.19407e-10 -6.53286e-10 2.691e-09 -7.26211e-10 -3.83304e-10 1.53882e-09 -4.194e-10 -7.73091 5.47488 -0.417314 -3.83296e-10 1.53883e-09 -4.19413e-10 -2.90554 0.965183 -0.102902 -3.83304e-10 1.53882e-09 -4.19408e-10 -10.2786 0.731801 -0.0259123 -3.833e-10 1.53882e-09 -4.19418e-10 -2.22167 -0.733487 0.20892 -2.03217e-16 0.0 -3.88251e-19 -10.7926 -47.1907 -5.33348 -0.347697 36.2391 0.0662506 2.27026 16.8018 -14.3271 2.03217e-16 0.0 3.88251e-19 0.629953 14.1627 0.539128 0.177978 33.7278 -0.847476 4.36255 -4.57564 18.3068
15.9463 79.189 147.423 3.4253 4.0634 -2.4512 0.852927 9.17206 -10.6581 7.32668 -5.56048 -2.57439 9.54157 1.62067 4.02846 -15.3753 -21.9065 2.70281 -0.0 0.0 0.0 -0.0 0.0 0.0 1.10901e-13 8.72513e-14 3.2828e-13 67.8416 -28.6311 -14.6976 -24.9101 -20.8941 52.633 -0.581096 -21.136 -3.11447 5.22782e-11 -3.72041e-10 1.07275e-09 7.20691e-11 -6.44404e-10 1.86215e-09 5.22799e-11 -3.72037e-10 1.07274e-09 7.73091 5.47488 0.417314 5.2277e-11 -3.72042e-10 1.07275e-09 2.90554 0.965183 0.102902 5.22802e-11 -3.72046e-10 1.07275e-09 10.2786 0.731801 0.0259123 5.22754e-11 -3.72044e-10 1.07276e-09 2.22167 -0.733487 -0.20892 1.10739e-13 8.72146e-14 3.28137e-13 -45.8717 4.04953 -15.4353 24.0704 -19.2318 -49.8096 0.753961 -24.0482 3.58966 -7.25583e-10 1.2698e-09 -5.53737e-10 -1.24167e-09 2.25688e-09 -9.6435e-10 -7.25581e-10 1.2698e-09 -5.53733e-10 -7.73091 5.47488 -0.417314 -7.25576e-10 1.26981e-09 -5.53745e-10 -2.90554 0.965183 -0.102902 -7.25583e-10 1.2698e-09 -5.53742e-10 -10.2786 0.731801 -0.0259123 -7.25582e-10 1.26981e-09 -5.53751e-10 -2.22167 -0.733487 0.20892 -2.03217e-16 0.0 -3.88251e-19 -10.7667 -47.7553 -6.52672 -0.383413 38.2262 0.130924 1.90135 16.3145 -13.1993 2.03217e-16 0.0 3.88251e-19 0.924149 13.9256 0.290044 0.195626 35.0117 -0.875626 3.56619 -2.58761 17.2507
15.8801 79.1542 148.774 3.7514 3.7952 -2.3779 1.2691 9.1462 -10.154 7.01143 -5.65318 -2.42424 9.54928 1.26774 4.04419 -15.8323 -21.85 2.60022 -0.0 0.0 0.0 -0.0 0.0 0.0 8.33479e-14 7.90375e-14 3.10154e-13 67.962 -29.6489 -14.346 -24.2249 -19.5233 50.3289 -0.590187 -21.2893 -3.13934 2.51066e-10 -4.50357e-10 9.98055e-10 4.16438e-10 -7.79913e-10 1.73553e-09 2.51068e-10 -4.50354e-10 9.98042e-10 7.73091 5.47488 0.417314 2.51064e-10 -4.50357e-10 9.98052e-10 2.90554 0.965183 0.102902 2.51069e-10 -4.5036e-10 9.98055e-10 10.2786 0.731801 0.0259123 2.51065e-10 -4.50359e-10 9.98058e-10 2.22167 -0.733487 -0.20892 8.31897e-14 7.89946e-14 3.10005e-13 -47.2091 5.37414 -14.2244 24.2856 -19.6405 -50.526 0.919848 -26.1574 3.95799 -8.51819e-10 1.07326e-09 -5.79774e-10 -1.45943e-09 1.92682e-09 -1.01168e-09 -8.51815e-10 1.07326e-09 -5.79771e-10 -7.73091 5.47488 -0.417314 -8.51811e-10 1.07327e-09 -5.79783e-10 -2.90554 0.965183 -0.102902 -8.51819e-10 1.07327e-09 -5.79782e-10 -10.2786 0.731801 -0.0259123 -8.51818e-10 1.07327e-09 -5.7979e-10 -2.22167 -0.733487 0.20892 -2.03217e-16 0.0 -3.88251e-19 -10.8721 -48.1372 -7.59369 -0.421945 40.0134 0.182835 1.5972 15.7625 -12.3484 2.03217e-16 0.0 3.88251e-19 1.13601 13.462 -0.0179215 0.221957 36.4033 -0.893286 2.81133 -0.499575 16.1612
15.837 79.1831 150.067 4.2134 3.6551 -2.2903 1.33561 9.0709 -9.82193 6.8898 -5.5704 -2.33217 9.55045 0.819455 4.09971 -16.067 -21.5738 2.63413 -0.0 0.0 0.0 -0.0 0.0 0.0 2.15591e-14 4.51052e-14 2.54456e-13 68.0914 -30.4259 -13.8142 -23.4484 -18.1244 47.847 -0.590261 -21.2771 -3.13763 5.00312e-10 -4.96549e-10 8.46199e-10 8.48581e-10 -8.5919e-10 1.47547e-09 5.00316e-10 -4.96547e-10 8.46185e-10 7.73091 5.47488 0.417314 5.00311e-10 -4.9655e-10 8.46196e-10 2.90554 0.965183 0.102902 5.00318e-10 -4.96552e-10 8.46199e-10 10.2786 0.731801 0.0259123 5.00312e-10 -4.96551e-10 8.46203e-10 2.22167 -0.733487 -0.20892 2.13987e-14 4.50638e-14 2.54278e-13 -48.4839 6.78908 -13.0328 24.4405 -19.9401 -51.061 1.04553 -27.5556 4.21109 -6.49953e-10 9.04215e-10 -4.23388e-10 -1.11487e-09 1.60937e-09 -7.38046e-10 -6.49952e-10 9.04211e-10 -4.23381e-10 -7.73091 5.47488 -0.417314 -6.49947e-10 9.04219e-10 -4.23396e-10 -2.90554 0.965183 -0.102902 -6.49954e-10 9.04218e-10 -4.23396e-10 -10.2786 0.731801 -0.0259123 -6.49952e-10 9.04222e-10 -4.23403e-10 -2.22167 -0.733487 0.20892 -2.03217e-16 0.0 -3.88251e-19 -11.23 -48.3501 -8.52837 -0.46187 41.6384 0.218021 1.3558 15.1282 -11.8192 2.03217e-16 0.0 3.88251e-19 1.15333 12.7269 -0.409088 0.256416 37.9114 -0.893854 2.07442 1.79461 14.9727
15.7665 79.2821 151.31 4.5691 3.6409 -2.2121 1.10109 8.95218 -9.6005 6.90096 -5.35217 -2.28034 9.57144 0.323592 4.18149 -16.1758 -21.1878 2.74802 -0.0 0.0 0.0 -0.0 0.0 0.0 -6.64781e-14 -7.53694e-15 1.66929e-13 68.2266 -30.9618 -13.1492 -22.5677 -16.6688 45.2167 -0.583178 -21.137 -3.11532 8.05895e-10 -5.24939e-10 6.14578e-10 1.37892e-09 -9.07233e-10 1.07766e-09 8.05901e-10 -5.24939e-10 6.1456e-10 7.73091 5.47488 0.417314 8.05895e-10 -5.24944e-10 6.14574e-10 2.90554 0.965183 0.102902 8.05902e-10 -5.24944e-10 6.14578e-10 10.2786 0.731801 0.0259123 8.05894e-10 -5.24943e-10 6.14583e-10 2.22167 -0.733487 -0.20892 -6.66435e-14 -7.57199e-15 1.66703e-13 -49.6705 8.36607 -11.8331 24.5532 -20.1651 -51.4357 1.11774 -28.3919 4.36291 -2.38993e-10 7.02159e-10 -1.4171e-10 -4.12146e-10 1.21227e-09 -2.44336e-10 -2.38997e-10 7.02153e-10 -1.41697e-10 -7.73091 5.47488 -0.417314 -2.38989e-10 7.0216e-10 -1.41714e-10 -2.90554 0.965183 -0.102902 -2.38995e-10 7.02157e-10 -1.41716e-10 -10.2786 0.731801 -0.0259123 -2.3899e-10 7.02164e-10 -1.41722e-10 -2.22167 -0.733487 0.20892 -2.03217e-16 0.0 -3.88251e-19 -11.841 -48.4594 -9.45563 -0.50295 43.2008 0.243583 1.10611 14.1963 -11.4932 2.03217e-16 0.0 3.88251e-19 0.964003 11.7429 -0.865071 0.295707 39.5302 -0.878781 1.38223 4.30795 13.705
